inDegrees=no
num_controls=7
num_derivatives=13
num_iterations=113
num_multipliers=7
num_parameters=0
num_slacks=7
num_states=26
objective=0.444910
objective_accelerations=0.058050
objective_balance=0.003665
objective_effort=0.023419
objective_height=0.354273
objective_ligament=0.005502
solver_duration=1584.998165
status=Solve_Succeeded
success=true
DataType=double
version=3
OpenSimVersion=4.5
endheader
time	/jointset/ground_pelvis/pelvis_tilt/value	/jointset/ground_pelvis/pelvis_tx/value	/jointset/ground_pelvis/pelvis_ty/value	/jointset/hip_l/hip_flexion_l/value	/jointset/hip_l/hip_adduction_l/value	/jointset/hip_l/hip_rotation_l/value	/jointset/back/lumbar_extension/value	/jointset/patellofemoral_l/patellar_flexion_l/value	/jointset/knee_l/knee_flexion_l/value	/jointset/knee_l/knee_adduction_l/value	/jointset/knee_l/knee_rotation_l/value	/jointset/ankle_l/ankle_angle_l/value	/jointset/subtalar_l/subtalar_angle_l/value	/jointset/ground_pelvis/pelvis_tilt/speed	/jointset/ground_pelvis/pelvis_tx/speed	/jointset/ground_pelvis/pelvis_ty/speed	/jointset/hip_l/hip_flexion_l/speed	/jointset/hip_l/hip_adduction_l/speed	/jointset/hip_l/hip_rotation_l/speed	/jointset/back/lumbar_extension/speed	/jointset/patellofemoral_l/patellar_flexion_l/speed	/jointset/knee_l/knee_flexion_l/speed	/jointset/knee_l/knee_adduction_l/speed	/jointset/knee_l/knee_rotation_l/speed	/jointset/ankle_l/ankle_angle_l/speed	/jointset/subtalar_l/subtalar_angle_l/speed	/forceset/tau_hip_flexion_l	/forceset/tau_hip_adduction_l	/forceset/tau_hip_rotation_l	/forceset/tau_knee_flexion_l	/forceset/tau_ankle_angle_l	/forceset/tau_subtalar_angle_l	/forceset/tau_lumbar_extension	lambda_cid13_p0	lambda_cid13_p1	lambda_cid13_p2	lambda_cid13_p3	lambda_cid13_p4	lambda_cid13_p5	lambda_cid14_p0	/jointset/ground_pelvis/pelvis_tilt/accel	/jointset/ground_pelvis/pelvis_tx/accel	/jointset/ground_pelvis/pelvis_ty/accel	/jointset/hip_l/hip_flexion_l/accel	/jointset/hip_l/hip_adduction_l/accel	/jointset/hip_l/hip_rotation_l/accel	/jointset/back/lumbar_extension/accel	/jointset/patellofemoral_l/patellar_flexion_l/accel	/jointset/knee_l/knee_flexion_l/accel	/jointset/knee_l/knee_adduction_l/accel	/jointset/knee_l/knee_rotation_l/accel	/jointset/ankle_l/ankle_angle_l/accel	/jointset/subtalar_l/subtalar_angle_l/accel	gamma_cid13_p0	gamma_cid13_p1	gamma_cid13_p2	gamma_cid13_p3	gamma_cid13_p4	gamma_cid13_p5	gamma_cid14_p0
1.5	-0.3774122488091114	-0.02812450373427785	0.7596286913665676	1.122678159166638	-0.4350513845235815	-0.2126284142101765	-0.226592114146471	0.8043670722239101	0.8043670722238921	-0.1313473735487569	-0.1471829848232861	0.1206523725631305	-0.02357772939013332	0.7008694809373842	0.2833394896087963	0.5409372319732587	-2.500645889157005	0.2078907663996593	-0.7220877366919858	0.310687023078355	-2.011548304084224	-2.011548304083914	-0.129362299078564	0.1310196380489697	-0.3775337315654309	0.04677611561124851	-0.1794595305856645	0.02868705397670742	-0.008276907118659018	-0.2014118983416011	0.04554076213188128	0.04379663264272286	0.1717114860549893	-17.57300746933273	-18.87752169679226	6.024496167442424	-7.890810674700979	-520.1415689904089	-60.84923391514953	-25.0094949656816	0.6954635736442613	0.7236404379451797	-0.5187292306455502	-1.323243113652172	0.7216832124274446	-0.1871862111360967	1.488808855894922	-1.321402328053969	-1.321402328053985	0.1258791403518091	0.2313319494323947	-0.4964767435777984	0.5259931514241695	4.883362441841273e-07	5.044338129087756e-07	-2.741504524279613e-06	-9.547407292690603e-08	6.897363336525342e-07	-1.031180816997217e-07	4.521341564979404e-07
1.51	-0.3703688945276254	-0.02525513005896976	0.7650110624846883	1.097607245199112	-0.4329378966658922	-0.2198576362024492	-0.2234120215637369	0.7841879242353094	0.7841879242353093	-0.1326375549964111	-0.1458627214123359	0.1168525380482514	-0.02308536111593923	0.7076954641028885	0.290505454219848	0.5354230509989778	-2.513195625574699	0.2147831791469632	-0.7236379799747834	0.3253069284913078	-2.023999660245945	-2.023999660245889	-0.1286853186601031	0.1330323458985017	-0.3823541960725692	0.05170459735452249	-0.1732030935086967	0.02745768420386055	-0.007965442019978222	-0.1988936943525662	0.04575602341355495	0.0432861336529167	0.1666872849256334	-17.27937743214307	-18.72323669108019	6.018188214160397	-7.898482480949622	-516.1452489252798	-61.30614126737063	-25.92247069850445	0.6602971865468091	0.7086403372447657	-0.5847441700999344	-1.169620847989081	0.669483341962271	-0.1207985710891691	1.444896637413255	-1.164834349568241	-1.164834349606304	0.03708053941523546	0.1858239355622613	-0.4629448256547491	0.4772901306720262	4.182465207012362e-07	1.019599689858956e-06	-1.844891488252135e-06	8.155214364228926e-08	5.957234125907222e-07	2.194454582358394e-08	4.081484596347068e-07
1.52	-0.3632604541147761	-0.02231498356463924	0.7703348954652101	1.072421077478976	-0.4307561920735138	-0.2270987316643974	-0.2200864668761898	0.7638926962672241	0.7638926962672393	-0.1339212720305152	-0.1445224141763218	0.1130068761840261	-0.02254350513533378	0.7138867072101257	0.2974940534132837	0.529229604453473	-2.523696639678837	0.2215341133374837	-0.7244624306270839	0.339779444040973	-2.034764299981148	-2.034764299981346	-0.1280694163687619	0.1350284030619804	-0.386699201434624	0.05667365689351715	-0.1669466564317309	0.02622831443101273	-0.007653976921288151	-0.1963754903635324	0.04597128469522822	0.04277563466310915	0.1616630837962759	-16.9886473016589	-18.57002962354207	6.013864360335304	-7.93359157739182	-512.2126685963221	-61.80784052525504	-26.83505437536969	0.5685155619908392	0.6881673544219498	-0.6545823448903628	-0.9134986509409929	0.6933875010707492	-0.04202768503667584	1.459330883237402	-0.9840590427502833	-0.9840590427502988	0.113663514927877	0.2280018122217579	-0.4013849145611219	0.5341087105683092	3.949818366446456e-07	1.276230655024132e-06	-1.473024063987281e-06	1.615694974058424e-07	5.748481508484513e-07	1.110504857816004e-07	3.931262777278195e-07
1.53	-0.3560932272178394	-0.0193060593953348	0.7755934557796251	1.047140176464615	-0.4285077872058097	-0.234344399227424	-0.2166172204630022	0.7434981567005174	0.743498156700523	-0.1351993595645411	-0.1431621319745271	0.109119882639193	-0.02195200536612657	0.7194509997952114	0.3042381924279321	0.5223727845245947	-2.532116517491523	0.2281220248771709	-0.7245819739715079	0.3540215505527223	-2.043852574082482	-2.04385257408255	-0.1275310184687874	0.1370083329865121	-0.3906368357013659	0.06162409100914337	-0.1609937055782698	0.02585226803612832	-0.007297794722616101	-0.1931220233823856	0.04517723813244004	0.04166104903811114	0.15676926028947	-17.0441145771399	-18.07810691254039	5.937555264344943	-7.452164512467633	-508.3266410961664	-61.67481998314359	-27.74726036921221	0.5342602615372588	0.6596742065692159	-0.7175504810941353	-0.7511401619008885	0.637823663629697	0.0168297734975809	1.399407328559393	-0.8276391642904948	-0.8276391642710214	0.0266284352792884	0.1796516174132536	-0.3805176660281404	0.475185415721163	4.214687569784986e-07	1.258168276417743e-06	-1.658698852220209e-06	1.385149344384018e-07	6.31681652133192e-07	1.619524452014976e-07	4.088778304620502e-07
1.54	-0.3488735825640982	-0.0162312664295673	0.78078018416191	1.021786095109034	-0.4261942370860663	-0.241588512737366	-0.2130070016260141	0.7230214488787058	0.7230214488787006	-0.1364715230180215	-0.1417827178665143	0.1051953997550331	-0.02131106632503082	0.7243702585710906	0.3106678127058967	0.514863218027414	-2.538332707922951	0.2345631637453373	-0.7241516200102182	0.3679739288011001	-2.051197951002439	-2.051197951002377	-0.1268846002589303	0.1388547843048191	-0.3941970693000042	0.0665615112712252	-0.1550407547248072	0.0254762216412454	-0.006941612523971509	-0.1898685564012363	0.04438319156965245	0.04054646341311554	0.1518754367826647	-17.1021005743958	-17.59075186886182	5.867696655065651	-7.009838319335258	-504.4913609070349	-61.59345387403427	-28.6597871174519	0.439508800149546	0.6252636070851915	-0.7851316585508263	-0.4727611746895216	0.664032966766572	0.06795177610606032	1.401385230563088	-0.6354796064749506	-0.6354796064749539	0.1352675769043936	0.2013060909768196	-0.3259047809403741	0.531505939859434	4.271109685665419e-07	1.340558218997104e-06	-1.656581085542802e-06	1.514642926066564e-07	6.56293083260016e-07	2.138805631091901e-07	4.144947996274492e-07
1.55	-0.3416080008465864	-0.01309371322566161	0.7858886699208394	0.9963806661558193	-0.4238170901220336	-0.2488262134704799	-0.2092588532731185	0.7024800450976101	0.7024800450976083	-0.1377364430172467	-0.1403859604256648	0.1012373746276309	-0.02062079294717943	0.7286281000408981	0.3167929864956798	0.5067347593883955	-2.542391181950484	0.2408313974523953	-0.7232763071325748	0.3816004844444632	-2.05678688867029	-2.056786888670232	-0.1261060516642199	0.1404928598344468	-0.3973279461754401	0.07148943159368386	-0.1488303141184426	0.02409942391558011	-0.006635623712760785	-0.1874158079243924	0.04436409665862933	0.03970594410952982	0.1468030140672067	-16.9232275574129	-17.27147078396998	5.833284611856495	-6.790267084418475	-500.9335910959554	-61.89989749062779	-29.57392170896243	0.4012298553867697	0.598715255308805	-0.841451756715025	-0.3180908224424716	0.6029378724001296	0.1145221181455815	1.335002131176432	-0.4762943786746458	-0.476294378675411	0.04837290324499907	0.1441734412322681	-0.2946248993703776	0.4727652140475909	4.087364505126753e-07	1.538686705551344e-06	-1.438093636033933e-06	2.058964294747313e-07	6.437790857266338e-07	2.669909940571683e-07	4.08434965985282e-07
1.56	-0.3343033791073787	-0.009896394085781319	0.7909129213353512	0.9709455124011982	-0.4213783169609853	-0.2560517208599067	-0.2053760970837986	0.68189161323349	0.6818916132334899	-0.13899373265003	-0.1389729991980603	0.0972504515797693	-0.01988137433898174	0.7321782629103232	0.3226209999008191	0.4980163491438714	-2.544277668204308	0.2468884031484415	-0.7217129512728463	0.3948954960859672	-2.060603567607523	-2.060603567607471	-0.1253585269698832	0.1420955416551351	-0.3999766533918832	0.07639055734048304	-0.1426198735120762	0.02272262618991634	-0.006329634901572555	-0.1849630594475462	0.04434500174760685	0.03886542480594656	0.1417305913517497	-16.7464275318946	-16.95499725047659	5.802942706872151	-6.603899116624094	-497.4211067232801	-62.25255005143959	-30.4853248645906	0.2979730800730779	0.565831530156458	-0.903121979651986	-0.03836361994784365	0.6217873645642092	0.2055603725231309	1.335076430191265	-0.2810278603516212	-0.281027860351614	0.1290627968296665	0.1942273491889121	-0.2294708491418026	0.5261470247275397	3.796613979827673e-07	1.709428156635229e-06	-1.20929983104778e-06	2.631185699750326e-07	6.085560376541002e-07	3.086025299625209e-07	3.972035244032728e-07
